<svg width="25" height="25" viewBox="0 0 29 28" fill="none" xmlns="http://www.w3.org/2000/svg">
<g id="Menu">
<g id="Group">
<path id="Vector" d="M5.75 11.5H8.25C10.75 11.5 12 10.25 12 7.75V5.25C12 2.75 10.75 1.5 8.25 1.5H5.75C3.25 1.5 2 2.75 2 5.25V7.75C2 10.25 3.25 11.5 5.75 11.5Z" stroke="#0F71F2" stroke-width="2.5155" stroke-miterlimit="10" stroke-linecap="round" stroke-linejoin="round"/>
<path id="Vector_2" d="M20.75 11.5H23.25C25.75 11.5 27 10.25 27 7.75V5.25C27 2.75 25.75 1.5 23.25 1.5H20.75C18.25 1.5 17 2.75 17 5.25V7.75C17 10.25 18.25 11.5 20.75 11.5Z" stroke="#0F71F2" stroke-width="2.5155" stroke-miterlimit="10" stroke-linecap="round" stroke-linejoin="round"/>
<path id="Vector_3" d="M20.75 26.5H23.25C25.75 26.5 27 25.25 27 22.75V20.25C27 17.75 25.75 16.5 23.25 16.5H20.75C18.25 16.5 17 17.75 17 20.25V22.75C17 25.25 18.25 26.5 20.75 26.5Z" stroke="#0F71F2" stroke-width="2.5155" stroke-miterlimit="10" stroke-linecap="round" stroke-linejoin="round"/>
<path id="Vector_4" d="M5.75 26.5H8.25C10.75 26.5 12 25.25 12 22.75V20.25C12 17.75 10.75 16.5 8.25 16.5H5.75C3.25 16.5 2 17.75 2 20.25V22.75C2 25.25 3.25 26.5 5.75 26.5Z" stroke="#0F71F2" stroke-width="2.5155" stroke-miterlimit="10" stroke-linecap="round" stroke-linejoin="round"/>
</g>
</g>
</svg>
